<?xml version="1.0" standalone="no"?>
<!DOCTYPE svg PUBLIC "-//W3C//DTD SVG 20010904//EN"
 "http://www.w3.org/TR/2001/REC-SVG-20010904/DTD/svg10.dtd">
<svg version="1.0" xmlns="http://www.w3.org/2000/svg"
 width="300.000000pt" height="400.000000pt" viewBox="0 0 300.000000 400.000000"
 preserveAspectRatio="xMidYMid meet">
<metadata>
Created by potrace 1.10, written by Peter Selinger 2001-2011
</metadata>
<g transform="translate(0.000000,400.000000) scale(0.100000,-0.100000)"
fill="#000000" stroke="none">
<path d="M1263 3035 c-270 -49 -502 -198 -647 -415 -55 -83 -113 -240 -126
-344 -43 -323 130 -663 425 -836 95 -55 165 -89 165 -80 0 16 -38 45 -60 46
-39 2 -176 91 -252 164 -43 41 -78 80 -78 87 0 8 -7 16 -15 19 -8 4 -15 12
-15 20 0 7 -6 17 -13 21 -7 4 -21 27 -32 50 -11 24 -23 43 -27 43 -3 0 -9 14
-13 30 -4 16 -11 30 -16 30 -5 0 -8 3 -7 8 1 4 -3 17 -10 30 -7 12 -10 22 -8
22 3 0 1 12 -5 28 -36 92 -31 356 9 462 3 8 6 17 7 20 7 23 70 149 92 183 34
53 204 223 232 232 12 3 21 11 21 16 0 5 6 9 14 9 8 0 16 4 18 9 4 10 149 80
178 86 11 2 26 7 32 11 7 4 33 11 58 16 25 4 54 10 65 12 87 20 146 23 305 16
67 -3 80 1 35 11 -60 12 -251 9 -332 -6z"/>
<path d="M1611 2969 c-170 -36 -355 -115 -509 -216 -94 -62 -246 -208 -238
-229 3 -8 0 -13 -6 -11 -13 2 -75 -96 -106 -170 -71 -167 -69 -395 4 -585 44
-116 183 -306 249 -340 11 -6 -7 18 -40 53 -68 72 -89 100 -132 179 -95 173
-124 399 -75 577 24 83 71 193 83 193 5 0 9 4 9 10 0 5 12 22 27 38 16 16 49
54 75 83 69 80 84 95 125 126 21 15 40 30 43 33 3 4 21 15 40 27 86 51 150 82
215 104 39 13 71 27 73 30 1 3 14 4 27 1 14 -2 25 0 25 5 0 5 14 10 32 11 17
2 38 8 45 14 7 6 13 7 13 3 0 -4 6 -2 13 4 8 6 17 8 20 5 3 -3 11 -3 18 2 19
12 148 15 169 4 25 -13 39 8 17 25 -10 7 -17 20 -17 29 0 22 -77 20 -199 -5z
m124 -9 c-22 -5 -51 -9 -65 -8 l-25 0 25 7 c14 4 43 8 65 8 l40 1 -40 -8z"/>
<path d="M1770 2834 c-181 -17 -301 -45 -414 -95 -63 -27 -58 -34 7 -8 92 37
127 48 165 53 20 2 59 10 86 16 26 6 57 8 67 5 11 -4 19 -3 19 2 0 4 74 7 165
7 93 -1 162 2 159 7 -3 5 0 9 5 9 6 0 11 -4 11 -10 0 -5 7 -10 16 -10 8 0 12
5 9 10 -3 6 -1 10 5 10 21 0 30 -53 30 -171 0 -107 -2 -119 -17 -119 -14 0
-15 2 -5 9 9 5 -9 11 -50 15 -74 8 -114 19 -184 52 -28 13 -91 35 -140 50
-155 46 -359 35 -505 -27 -27 -12 -46 -25 -43 -30 3 -5 -2 -6 -10 -3 -8 3 -24
-4 -35 -15 -12 -12 -26 -21 -31 -21 -5 0 -10 -4 -10 -10 0 -16 23 -12 83 15
103 45 212 68 347 71 153 4 221 -10 363 -73 85 -37 116 -46 184 -50 l82 -6 -5
106 c-3 87 -1 106 11 111 25 9 17 40 -18 74 l-33 32 -139 -2 c-77 0 -156 -3
-175 -4z m-341 -158 c-2 -2 -31 -6 -64 -9 -39 -4 -50 -3 -30 2 31 9 102 14 94
7z m-178 -37 c-30 -10 -56 -17 -58 -15 -5 5 77 34 97 34 8 1 -9 -8 -39 -19z"/>
<path d="M1725 2516 c-5 -3 -31 -7 -56 -11 -61 -8 -130 -54 -168 -112 -35 -52
-41 -82 -10 -43 49 61 97 104 137 122 48 22 144 28 227 15 47 -7 48 -6 24 7
-24 14 -134 29 -154 22z"/>
<path d="M2250 2511 c-26 -6 -14 -8 45 -9 44 -1 96 -6 115 -12 44 -13 67 -13
55 -1 -12 11 -118 32 -154 30 -14 -1 -42 -5 -61 -8z"/>
<path d="M1270 2480 c0 -5 7 -6 17 -3 12 5 14 3 8 -7 -5 -8 -4 -11 2 -7 18 12
80 -41 97 -83 19 -48 21 -136 4 -193 -7 -22 -26 -55 -44 -73 -17 -19 -28 -36
-25 -40 3 -3 1 -4 -4 -3 -6 1 -30 -3 -55 -11 -25 -7 -74 -14 -109 -15 l-63 -2
1 -127 2 -126 -55 0 c-30 0 -60 2 -68 5 -10 4 -12 55 -10 263 2 141 -1 282 -6
312 -7 40 -10 -31 -11 -260 0 -175 3 -321 8 -329 7 -10 31 -15 77 -17 106 -3
100 -10 93 119 -3 62 -4 115 -3 118 2 3 35 9 73 13 90 8 149 34 193 85 39 46
48 50 48 20 0 -11 5 -17 10 -14 6 3 10 2 10 -3 0 -16 82 -103 120 -127 84 -53
207 -72 302 -48 56 14 69 22 76 43 11 31 0 65 -27 80 -12 6 -21 17 -21 25 0
18 0 18 -43 0 -20 -8 -50 -15 -67 -15 -20 0 -29 -4 -24 -11 6 -10 37 -8 101 8
17 4 27 -3 43 -29 21 -35 26 -53 11 -43 -5 3 -15 0 -23 -7 -19 -18 -40 -21
-148 -22 -114 0 -174 22 -238 87 -54 55 -73 104 -77 199 -6 112 -34 170 -110
221 -41 28 -65 34 -65 17z"/>
<path d="M2483 2484 c4 -4 -3 -24 -15 -46 -15 -27 -27 -37 -38 -32 -8 3 -50 8
-92 11 -62 5 -82 3 -103 -11 -49 -32 -15 -95 60 -112 l30 -6 -36 25 c-93 66
-40 90 137 61 35 -5 42 -4 46 13 6 23 51 36 67 20 8 -8 11 -6 11 6 0 9 -11 24
-25 33 -14 9 -25 23 -25 30 0 8 -5 14 -12 14 -6 0 -8 -3 -5 -6z"/>
<path d="M1916 2470 c-3 -8 -12 -33 -19 -55 -8 -23 -21 -41 -32 -43 -12 -3
-15 0 -10 9 6 9 2 11 -13 7 -12 -4 -20 -2 -16 3 3 5 -22 9 -57 9 -111 0 -169
-55 -169 -161 0 -84 38 -142 106 -163 14 -4 5 10 -28 45 -26 28 -48 60 -49 70
-3 45 -2 56 5 86 4 17 19 44 34 59 l27 27 112 -7 c80 -4 114 -3 119 6 4 7 3 8
-4 4 -15 -9 -15 13 -2 34 9 13 12 13 24 -3 13 -16 14 -16 19 4 3 12 -1 27 -12
38 -10 10 -21 25 -24 32 -4 11 -6 11 -11 -1z"/>
<path d="M2092 2435 c-23 -26 -32 -45 -32 -71 0 -42 20 -94 45 -114 17 -14 17
-13 0 14 -11 16 -20 36 -22 44 -1 9 -4 26 -7 38 -4 13 -2 25 4 29 5 3 7 12 3
20 -3 8 -1 15 4 15 5 0 17 14 26 30 23 39 19 38 -21 -5z"/>
<path d="M1094 2397 c-2 -7 -3 -62 -2 -123 l3 -109 35 -3 c30 -2 33 -1 18 11
-19 15 -21 27 -19 125 1 66 3 72 22 72 25 0 57 -16 87 -43 12 -11 22 -16 22
-11 0 21 -42 75 -66 84 -37 14 -94 12 -100 -3z"/>
<path d="M2089 2226 c13 -14 53 -37 90 -52 83 -33 144 -64 153 -78 5 -7 8 -6
8 3 0 27 -32 50 -108 77 -43 15 -97 38 -121 51 l-45 24 23 -25z"/>
<path d="M2414 2237 c11 -7 37 -29 58 -49 32 -31 38 -43 38 -78 0 -80 -47
-144 -127 -171 -63 -22 -217 -17 -291 10 -35 13 -65 21 -68 18 -8 -7 77 -54
118 -65 47 -13 209 -5 236 12 6 4 12 5 12 2 0 -4 16 3 36 13 44 24 104 85 104
106 0 8 5 15 10 15 6 0 10 16 10 35 0 19 -4 35 -8 35 -4 0 -13 13 -19 29 -10
28 -97 101 -118 100 -5 0 -1 -6 9 -12z"/>
<path d="M2062 2020 c-25 -45 -20 -51 15 -18 21 19 27 20 70 11 75 -17 143
-11 181 16 38 27 36 42 -3 17 -50 -33 -140 -29 -230 10 -5 2 -20 -14 -33 -36z"/>
<path d="M1965 1860 c-15 -16 -33 -27 -38 -23 -6 3 -7 1 -3 -5 9 -15 -90 -98
-159 -132 -75 -37 -171 -47 -286 -31 -94 14 -188 46 -196 67 -5 14 -23 10 -23
-5 0 -11 137 -79 175 -87 52 -11 171 -12 226 -2 74 13 171 66 248 135 13 12
31 19 39 15 10 -3 13 -1 8 6 -7 11 29 28 52 24 16 -4 15 28 -2 50 -12 16 -15
15 -41 -12z"/>
<path d="M1825 1793 c-109 -46 -201 -64 -330 -65 -66 -1 -140 2 -165 6 l-45 7
29 -17 c79 -44 516 4 516 57 0 5 4 8 9 5 5 -3 20 3 32 14 30 24 27 24 -46 -7z"/>
<path d="M2100 1739 c-128 -165 -309 -302 -477 -363 -89 -31 -220 -48 -288
-37 -50 8 -49 11 15 28 29 8 21 9 -46 9 -71 -1 -81 -3 -73 -17 12 -24 103 -49
178 -49 80 0 195 18 199 31 2 5 8 9 14 9 29 0 228 103 236 122 2 4 7 8 12 8
12 0 68 51 182 163 90 89 108 102 131 98 12 -2 7 33 -7 52 -7 9 -15 17 -17 17
-2 0 -29 -32 -59 -71z"/>
<path d="M987 1658 c48 -51 223 -166 263 -173 3 0 28 -8 55 -17 46 -15 119
-26 190 -29 29 0 29 -1 -10 -14 -22 -7 -34 -13 -28 -14 32 -3 333 108 333 122
0 2 -39 -10 -87 -26 -211 -71 -489 -29 -623 93 l-35 32 45 -7 c24 -4 51 -11
60 -15 8 -5 42 -14 75 -21 33 -7 67 -14 75 -17 21 -5 248 -6 285 0 31 5 80 27
73 33 -2 3 -26 -2 -53 -10 -27 -9 -88 -15 -139 -15 -98 0 -319 36 -310 51 3 5
-2 6 -10 3 -17 -7 -148 34 -142 44 2 4 -7 8 -21 8 l-25 2 29 -30z"/>
</g>
</svg>
